# xmcd CD database file
#
# Track frame offsets:
#	150
#	22661
#	37545
#	54566
#	67528
#	76318
#	91721
#	105102
#	119313
#	141280
#	156316
#	170201
#	185508
#	201111
#	217223
#	237633
#
# Disc length: 3400 seconds
#
# Revision: 3
# Processed by: cddbd v1.5.2PL0 Copyright (c) Steve Scherf et al.
# Submitted via: CDex 1.51
#
DISCID=cb0d4610
DTITLE=Various Artist - The Essential Guide To Country  [CD 1-3] - Contemporary Country
DYEAR=2007
DGENRE=Country
TTITLE0=Ryan Adams feat. Emmylou Harris - Oh My Sweet Carolina
TTITLE1=Del McCoury - What Made Milwaukee Famous
TTITLE2=Nanci Griffith - On The Banks Of The Pontchartrain
TTITLE3=Alison Krauss and Union Station - Take Me For Longing
TTITLE4=Emmylou Harris, Alison Krauss and Gilliam Welch - Didn`t Leave Nobody But The Baby
TTITLE5=Jeannie Kendall - Train Of Thought
TTITLE6=Heather Myles - Little Chapel
TTITLE7=Malibu Storm - Clover
TTITLE8=Rodney Crowell - The Rock Of My Soul
TTITLE9=James Hand - In The Corner, At The Table, By The Jukebox
TTITLE10=The Lynn Morris Band - The Bramble and The Rose
TTITLE11=Hazel Dickens - By The Sweet Of My Row
TTITLE12=Sweethearts Of The Rodeo - Get Rhythm
TTITLE13=Ginny Hawker - You Don`T Tell Me That You Love Me Anymore
TTITLE14=Lonestar - Amazed
TTITLE15=Dan Penn and Spooner Oldham - The Dark End Of The Street  (live)
EXTD=YEAR: 2007
EXTT0=
EXTT1=
EXTT2=
EXTT3=
EXTT4=
EXTT5=
EXTT6=
EXTT7=
EXTT8=
EXTT9=
EXTT10=
EXTT11=
EXTT12=
EXTT13=
EXTT14=
EXTT15=
PLAYORDER=
